# xmcd
#
# Track frame offsets: 
#        150
#        11327
#        20957
#        32476
#        41906
#        53308
#        66567
#        77140
#        88854
#        100651
#        112114
#        123889
#        135137
#        147673
#        157149
#        168631
#        178646
#        191335
#        202588
#        216724
#        225474
#        233356
#        244075
#        253039
#        264756
#        275513
#        286072
#        300716
#        313530
#        327664
#
# Disc length: 4507 seconds
#
# Revision: 0
# Processed by: cddbd v1.5.2PL0 Copyright (c) Steve Scherf et al.
# Submitted via: ExactAudioCopy v1.0b1
#
DISCID=a511991e
DTITLE=Johnny Horton - North To Alaska And Other Great Hits [CD2)
DYEAR=2012
DGENRE=Country
TTITLE0=Tetched In The Head
TTITLE1=Just Walk A Little Closer
TTITLE2=Don't Use My Heart For A Stepping Stone
TTITLE3=I Love You Baby
TTITLE4=The Battle Of New Orleans
TTITLE5=Whispering Pines
TTITLE6=The First Train Headin' South
TTITLE7=Lost Highway
TTITLE8=Joe's Been A-Gittin' There
TTITLE9=Sam Magee
TTITLE10=When It's Springtime In Alaska (It's Forty Below)
TTITLE11=Cherokee Boogie
TTITLE12=All For The Love Of A Girl
TTITLE13=The Golden Rocket
TTITLE14=Mr. Moonlight
TTITLE15=Got The Bull By The Horns
TTITLE16=Johnny Freedom (Freedom Land)
TTITLE17=Jim Bridger
TTITLE18=Comanche (The Brave Horse)
TTITLE19=Snow Shoe Thompson
TTITLE20=O'Leary's Cow
TTITLE21=John Paul Jones
TTITLE22=Young Abe Lincoln
TTITLE23=Battle Of Bull Run
TTITLE24=Sinking Of The Reuben James
TTITLE25=Johnny Reb
TTITLE26=Sink The Bismark
TTITLE27=North To Alaska
TTITLE28=Mansion You Stole
TTITLE29=I'm Ready If You're Willing
EXTD=
EXTT0=
EXTT1=
EXTT2=
EXTT3=
EXTT4=
EXTT5=
EXTT6=
EXTT7=
EXTT8=
EXTT9=
EXTT10=
EXTT11=
EXTT12=
EXTT13=
EXTT14=
EXTT15=
EXTT16=
EXTT17=
EXTT18=
EXTT19=
EXTT20=
EXTT21=
EXTT22=
EXTT23=
EXTT24=
EXTT25=
EXTT26=
EXTT27=
EXTT28=
EXTT29=
PLAYORDER=
